<?xml version="1.0" encoding="UTF-8"?>
<svg width="67px" height="15px" viewBox="0 0 67 15" version="1.1" xmlns="http://www.w3.org/2000/svg" xmlns:xlink="http://www.w3.org/1999/xlink">
    <!-- Generator: Sketch 52.1 (67048) - http://www.bohemiancoding.com/sketch -->
    <title>logo_size web copy</title>
    <desc>Created with Sketch.</desc>
    <g id="LK" stroke="none" stroke-width="1" fill="none" fill-rule="evenodd">
        <g id="Landing-Copy-5" transform="translate(-200.000000, -20.000000)" fill="#000000">
            <g id="Menu-Copy" transform="translate(0.000000, -1.000000)">
                <path d="M200,36 L200,21 L204.051542,21 L204.051542,32.665 L210.417257,32.665 L210.417257,36 L200,36 Z M211.642817,28.2 L215.523756,28.2 L215.523756,21 L211.642817,21 L211.642817,28.2 Z M211.642817,36 L215.523756,36 L215.523756,28.8 L211.642817,28.8 L211.642817,36 Z M226.380098,36 L222.371496,36 L216.781582,21 L220.753304,21 L224.421472,30.7788889 L228.10269,21 L232.101079,21 L226.427191,36 L226.380098,36 Z M233.530898,28.2 L237.411837,28.2 L237.411837,21 L233.530898,21 L233.530898,28.2 Z M233.530898,36 L237.411837,36 L237.411837,28.8 L233.530898,28.8 L233.530898,36 Z M243.155935,27.5577778 L243.155935,36 L239.690963,36 L239.690963,21 L242.722534,21 L249.094928,29.4416667 L249.094928,21 L252.55934,21 L252.55934,36 L249.620601,36 L243.155935,27.5577778 Z M261.295587,36 C257.596023,36 253.927363,33.7983333 253.927363,28.2544444 C253.927363,22.7088889 258.161664,21 261.327042,21 C264.49242,21 266.013303,22.5005556 266.013303,22.5005556 L264.533257,25.5022222 C264.533257,25.5022222 263.711561,24.2522222 261.573716,24.2522222 C259.435872,24.2522222 257.730121,25.4638889 257.730121,28.2577778 C257.730121,31.0516667 259.478364,32.6127778 261.295587,32.6127778 C262.570347,32.6127778 263.67238,31.8872222 263.67238,31.8872222 L263.67238,30.4533333 L260.923644,30.4533333 L260.923644,27.1172222 L267,27.1172222 L267,33.8222222 L266.937642,33.8222222 C266.588324,34.1777778 264.635348,36 261.295587,36 Z" id="logo_size-web-copy"></path>
            </g>
        </g>
    </g>
</svg>