<svg xmlns="http://www.w3.org/2000/svg" width="25" height="28" viewBox="0 0 25 28">
    <g fill="#CC3B1F" fill-rule="evenodd">
        <path d="M.963 20c1.614-1.654 4.54-2.044 7.37-3 0 2.258 1.867 4.09 4.167 4.09s4.167-1.832 4.167-4.09c2.83.956 5.756 1.346 7.37 3 .932 1.658 1.007 3.548.948 6-5.66 1.333-9.822 2-12.485 2-2.886 0-7.047-.667-12.485-2-.059-2.452.016-4.342.948-6zM6.98 11.744c-.388-.317-.742-.946-.899-1.668-.226-1.04.038-1.883.591-1.882h.019l.05.003a.454.454 0 0 1 .07.013c-.19-1.358-.316-2.662-.084-3.934.034-.23.096-.474.185-.722C7.356 1.93 9.269 0 12.5 0c3.23 0 5.143 1.93 5.587 3.554.089.248.15.492.186.722.231 1.272.104 2.576-.085 3.934.04-.01.082-.015.07-.013a.746.746 0 0 0 .053-.003h.016c.554-.001.818.842.592 1.882-.157.722-.511 1.351-.899 1.668C16.66 15.019 14.937 17 12.5 17c-2.437 0-4.16-1.981-5.52-5.256zm10.138-.546a.842.842 0 0 1 .238-.337c.192-.163.46-.6.584-1.197a2.38 2.38 0 0 0 .057-.626l.001-.055a.736.736 0 0 0-.345-.636c-.39-.136-.73.91-.912 1.49.199-1.064.472-2.438.472-3.298l.002.006-.001-.606C16.098 4.733 15.295 4.034 13.717 4c1.039 1.002 1.403 2.095 1.598 3.328-.847-1.039-1.93-2.03-3.405-2.382.479.72.505 1.607.346 2.326-1.05-1.295-2.27-2.225-3.734-2.613-.426.409-.651.89-.737 1.391v.495l.002-.006c0 .86.273 2.234.472 3.298-.183-.58-.521-1.626-.912-1.49a.736.736 0 0 0-.345.636v.055a2.38 2.38 0 0 0 .058.626c.124.597.392 1.034.584 1.197a.842.842 0 0 1 .238.337C9.134 14.354 10.144 16 12.5 16c2.356 0 3.366-1.646 4.618-4.802z"/>
    </g>
</svg>
