<svg xmlns="http://www.w3.org/2000/svg" width="15" height="10" viewBox="0 0 15 10">
    <path fill="#FFF" fill-rule="evenodd" d="M5.73 6.844V2.85l3.903 2.005-3.902 1.99zm8.57-4.687s-.141-.98-.574-1.411c-.55-.567-1.165-.57-1.447-.602C10.257 0 7.225 0 7.225 0H7.22S4.187 0 2.166.144C1.883.177 1.268.179.718.746.285 1.177.144 2.157.144 2.157S0 3.307 0 4.458v1.079c0 1.15.144 2.301.144 2.301s.141.98.574 1.411c.55.567 1.272.549 1.593.608 1.156.11 4.911.143 4.911.143s3.035-.004 5.057-.148c.282-.034.897-.036 1.447-.603.433-.431.574-1.411.574-1.411s.144-1.15.144-2.301V4.458c0-1.15-.144-2.3-.144-2.3z"/>
</svg>
