<svg xmlns="http://www.w3.org/2000/svg" width="14" height="8" viewBox="0 0 14 8">
    <path fill="#FFF" fill-rule="evenodd" d="M6.85 7.966h.837s.252-.027.381-.167c.12-.128.116-.368.116-.368s-.017-1.124.504-1.29c.514-.164 1.174 1.087 1.873 1.567.529.364.93.285.93.285l1.87-.027s.978-.06.514-.83c-.038-.063-.27-.57-1.39-1.611-1.172-1.09-1.015-.914.397-2.8.86-1.147 1.204-1.848 1.096-2.148-.102-.286-.735-.21-.735-.21l-2.105.012s-.156-.021-.272.048a.59.59 0 0 0-.185.226s-.334.889-.778 1.644c-.937 1.595-1.312 1.679-1.465 1.58-.357-.23-.268-.927-.268-1.421 0-1.546.234-2.19-.455-2.357-.229-.055-.398-.091-.983-.097-.75-.008-1.386.002-1.746.179-.24.117-.425.379-.312.394.139.019.454.085.621.313.216.294.208.954.208.954s.124 1.819-.29 2.045c-.283.154-.672-.162-1.508-1.608-.428-.741-.751-1.56-.751-1.56S2.89.566 2.78.484c-.135-.1-.323-.131-.323-.131l-2 .013s-.3.009-.411.14C-.053.621.038.861.038.861s1.566 3.67 3.34 5.52C5.002 8.078 6.85 7.966 6.85 7.966"/>
</svg>
