<svg xmlns="http://www.w3.org/2000/svg" width="29" height="32"><g fill="#CC3B1F" fill-rule="evenodd"><path fill-rule="nonzero" d="M14.563 0c.689 0 1.343.3 1.947.853a2.806 2.806 0 0 0-.82.558l-.02.021C15.31 1.15 14.94 1 14.563 1c-1.234 0-2.405 1.605-3.3 4.2-.95 2.755-1.539 6.573-1.539 10.8 0 .492.008.979.024 1.459a39.816 39.816 0 0 1-1.036-.719 45.19 45.19 0 0 1-.006-.74c0-4.333.609-8.265 1.594-11.12C11.34 1.865 12.843 0 14.563 0zm4.53 5.715c.08.263.155.534.228.812-.323.1-.646.205-.967.315a25.14 25.14 0 0 0-.214-.774c.343-.06.666-.181.954-.353zM28.677 24c-.51.867-1.56 1.342-2.994 1.454a2.207 2.207 0 0 0 .04-.987c1.02-.091 1.745-.407 2.074-.967.617-1.05-.214-2.847-2.056-4.907-1.44-1.609-3.31-3.172-5.364-4.59a45.502 45.502 0 0 1 0 3.988 39.56 39.56 0 0 0 1.84-1.35c.264.218.525.44.78.664a40.76 40.76 0 0 1-2.693 1.947 39.328 39.328 0 0 1-.372 3.267 30.189 30.189 0 0 1-.978-.333c.11-.718.2-1.466.272-2.239a41.695 41.695 0 0 1-3.276 1.845c-3.272 1.663-6.463 2.874-9.065 3.393-3.177.623-5.572.277-6.433-1.185H.45c-.585-.994-.36-2.334.518-3.841a2.55 2.55 0 0 0 .805.598c-.647 1.13-.831 2.084-.444 2.743v.002c.616 1.048 2.618 1.24 5.356.703 2.589-.507 5.771-1.676 9.063-3.413a46.327 46.327 0 0 0 3.572-2.094 44.288 44.288 0 0 0 0-5.4 46.56 46.56 0 0 0-4.758-2.692 45.337 45.337 0 0 0-3.694 2.029c.032-.412.07-.825.116-1.238a48.341 48.341 0 0 1 2.43-1.333 39.42 39.42 0 0 0-2.112-.89c.06-.334.125-.666.195-.995.996.379 2.026.822 3.065 1.317 2.788-1.33 5.445-2.243 7.68-2.68 6.776-1.328 8.937 2.022 4.262 7.248a23.47 23.47 0 0 1-1.206 1.244 30.914 30.914 0 0 0-.76-.663c.437-.418.839-.832 1.202-1.237 4.02-4.495 2.526-6.754-3.3-5.612-1.97.386-4.285 1.156-6.73 2.268a47.813 47.813 0 0 1 3.515 1.99 38.347 38.347 0 0 0-.271-2.239c.325-.116.65-.227.977-.332.163 1.034.289 2.127.372 3.264 2.384 1.582 4.563 3.36 6.2 5.19 2.14 2.39 3.033 4.6 2.173 6.063zm-7.478.954c-1.663-.41-3.515-1.052-5.454-1.907.389-.195.772-.393 1.15-.594 1.592.664 3.111 1.174 4.495 1.518a2.206 2.206 0 0 0-.191.983zm-8.905-3.61c-.348-.19-.693-.383-1.035-.581-3.654-2.115-6.678-4.51-8.636-6.7C.482 11.673-.41 9.463.45 8c.86-1.462 3.256-1.808 6.434-1.185.544.106 1.112.24 1.7.403-.073.324-.141.651-.205.98a22.787 22.787 0 0 0-1.694-.403C3.948 7.26 1.946 7.452 1.33 8.5c-.617 1.05.214 2.848 2.056 4.907 1.826 2.04 4.626 4.276 8.024 6.283.669.395 1.343.773 2.03 1.134-.377.178-.76.352-1.146.52zM6.13 14.695a39.35 39.35 0 0 1 1.625-1.215 50.64 50.64 0 0 0-.05 1.275c-.272.2-.537.402-.795.604a29.155 29.155 0 0 1-.78-.664zm3.907 6.513c.041.332.086.657.135.977-.325.117-.651.228-.977.332a37.74 37.74 0 0 1-.26-1.99c.367.234.735.461 1.102.681zm.735 3.95c.15.581.314 1.13.49 1.642.896 2.595 2.067 4.2 3.3 4.2 1.235 0 2.406-1.605 3.3-4.2a20.9 20.9 0 0 0 .492-1.643c.322.11.644.216.967.315a22.44 22.44 0 0 1-.495 1.648c-1.04 3.015-2.544 4.88-4.263 4.88-1.72 0-3.223-1.865-4.263-4.88a22.528 22.528 0 0 1-.495-1.646c.322-.1.645-.205.967-.316z"/><path d="M14.563 13a3.006 3.006 0 0 1 3.013 3c0 1.657-1.35 3-3.013 3a3.006 3.006 0 0 1-3.013-3c0-1.657 1.349-3 3.013-3zm3.095-7.641c1.125 0 2.037-.896 2.037-2 0-1.105-.912-2-2.037-2s-2.037.895-2.037 2c0 1.104.912 2 2.037 2zm5.82 21.016c.843 0 1.528-.672 1.528-1.5s-.685-1.5-1.528-1.5c-.844 0-1.528.672-1.528 1.5s.684 1.5 1.528 1.5zM2.862 20.25c.985 0 1.783-.784 1.783-1.75s-.798-1.75-1.783-1.75c-.984 0-1.782.784-1.782 1.75s.798 1.75 1.782 1.75z"/></g></svg>