<svg width="67" height="15" xmlns="http://www.w3.org/2000/svg"><path d="M0 15V0h4.052v11.665h6.365V15H0zm11.643-7.8h3.88V0h-3.88v7.2zm0 7.8h3.88V7.8h-3.88V15zm14.737 0h-4.009l-5.59-15h3.972l3.668 9.779L28.103 0H32.1l-5.674 15h-.047zm7.15-7.8h3.882V0H33.53v7.2zm0 7.8h3.882V7.8H33.53V15zm9.626-8.442V15H39.69V0h3.032l6.372 8.442V0h3.464v15H49.62l-6.465-8.442zM61.296 15c-3.7 0-7.369-2.202-7.369-7.746 0-5.545 4.235-7.254 7.4-7.254s4.686 1.5 4.686 1.5l-1.48 3.002s-.821-1.25-2.96-1.25c-2.137 0-3.843 1.212-3.843 4.006 0 2.794 1.748 4.355 3.566 4.355 1.274 0 2.376-.726 2.376-.726V9.453h-2.748V6.117H67v6.705h-.062c-.35.356-2.303 2.178-5.642 2.178z" fill-rule="evenodd"/></svg>